<svg xmlns="http://www.w3.org/2000/svg" height="50" viewBox="0 0 258 50" width="258" style="fill:#fff"><path d="M42.786 35.078c-0.71 -0.93 -0.54 -1.788 -0.168 -2.634l3.82 -8.608c0.67 -1.5 1.316 -3.006 2.048 -4.47a12.091 12.091 0 0 1 1.458 -2.218 4.636 4.636 0 0 1 1.33 -1.092c1.342 -0.76 2.568 -0.428 3.286 0.96 0.584 1.132 1.132 2.314 1.464 3.54 0.584 2.146 1.386 4.196 2.28 6.23 0.606 1.38 0.944 2.88 1.45 4.308 0.224 0.64 0.578 1.232 0.874 1.844 0.04 0.092 0.096 0.212 0.174 0.254 0.76 0.386 0.734 1.062 0.698 1.768 -0.016 0.232 0.048 0.47 0.106 0.7 0.16 0.728 -0.05 1.25 -0.72 1.58a9.091 9.091 0 0 1 -1.47 0.584c-0.88 0.26 -1.568 -0.076 -1.794 -0.96 -0.246 -0.99 -0.354 -2.012 -0.542 -3.02 -0.084 -0.476 -0.148 -0.99 -0.366 -1.414a180 180 0 0 0 -2.978 -5.546c-0.71 -1.274 -2.238 -1.67 -3.504 -0.92a4 4 0 0 0 -0.95 0.764c-1.04 1.162 -1.97 2.394 -2.428 3.93 -0.304 1 -0.684 1.964 -1.006 2.956 -0.232 0.71 -0.48 1.4 -1.268 1.788 0.148 0.078 0.212 0.126 0.282 0.14 6.946 1.416 13.702 3.514 20.488 5.512 3.504 1.036 7.074 1.846 10.604 2.802 0.868 0.232 1.712 0.58 2.528 0.944 1.048 0.472 1.174 1.48 1.26 2.464 0.028 0.296 -0.042 0.606 -0.092 0.908 -0.126 0.802 -0.746 1.12 -1.414 0.654 -0.888 -0.606 -1.71 -1.302 -2.59 -1.92a9.091 9.091 0 0 0 -1.59 -0.9c-4.286 -1.804 -8.86 -2.522 -13.366 -3.5 -6.482 -1.408 -12.942 -2.886 -19.446 -4.182 -6.48 -1.296 -13.006 -2.408 -19.508 -3.598 -0.148 -0.028 -0.302 -0.036 -0.514 -0.062 -0.12 0.808 -0.246 1.588 -0.346 2.38 -0.112 0.928 -0.196 1.864 -0.324 2.794a2.818 2.818 0 0 1 -0.274 0.928c-0.31 0.586 -1.026 0.682 -1.442 0.16a3 3 0 0 1 -0.514 -1.04 221.818 221.818 0 0 1 -1.3 -5.266c-0.08 -0.336 -0.234 -0.436 -0.55 -0.464a56.364 56.364 0 0 1 -3.266 -0.324 5.455 5.455 0 0 1 -1.416 -0.416c-1.576 -0.696 -1.998 -2.26 -0.934 -3.62a10 10 0 0 1 1.914 -1.898c1.232 -0.886 2.554 -1.654 3.85 -2.436 0.358 -0.212 0.584 -0.436 0.612 -0.86 0.056 -0.984 0.18 -1.97 0.174 -2.948 -0.012 -1.092 0.592 -1.802 1.344 -2.394 0.62 -0.494 1.592 -0.1 2.034 0.684 0.17 0.31 0.432 0.584 0.558 0.908 0.12 0.308 0.148 0.66 0.148 1 0.006 0.352 -0.07 0.702 -0.114 1.098 0.154 -0.05 0.268 -0.078 0.368 -0.128a4953.636 4953.636 0 0 0 17.762 -8.362 156.364 156.364 0 0 0 5.594 -2.796c0.612 -0.316 1.192 -0.74 1.732 -1.174 0.804 -0.664 1.564 -1.38 2.344 -2.064 0.332 -0.288 0.682 -0.6 0.528 -1.078 -0.17 -0.5 -0.542 -0.894 -1.078 -1.006 -0.598 -0.132 -1.208 -0.176 -1.82 -0.276 -3.648 -0.582 -7.272 -0.104 -10.874 0.396 -6.364 0.88 -12.704 1.908 -19.066 2.83a16 16 0 0 0 -4.448 1.324c-0.98 0.45 -1.942 0.93 -2.936 1.36a6.091 6.091 0 0 0 -2.568 2.02 1.382 1.382 0 0 1 -1.302 0.576c-0.67 -0.08 -1.324 -0.29 -1.992 -0.338 -0.844 -0.062 -1.366 -0.668 -1.986 -1.092a1.636 1.636 0 0 1 -0.746 -1.54 1 1 0 0 0 -0.056 -0.396c-0.218 -0.64 -0.076 -0.956 0.564 -1.168 0.36 -0.112 0.732 -0.182 1.09 -0.282C7.191 8.474 12.005 7.705 16.805 6.884c3.57 -0.614 7.118 -1.366 10.692 -1.924 3.9 -0.606 7.826 -1.034 11.74 -1.562 4.764 -0.64 9.528 -1.232 14.336 -1.366 2.026 -0.048 4.054 0.154 6.08 0.274 0.414 0.028 0.844 0.17 1.23 0.324 1.676 0.676 2.182 2.52 1.028 3.908a6.545 6.545 0 0 1 -1.702 1.464c-1.676 0.986 -3.372 1.942 -5.118 2.794 -1.828 0.888 -3.736 1.612 -5.586 2.45 -6.742 3.048 -13.486 6.082 -20.206 9.18 -1.17 0.54 -2.23 1.316 -3.308 2.034 -1.126 0.76 -1.958 1.8 -2.66 2.95 -1.114 1.81 -0.494 3.216 1.464 3.942 2.166 0.802 4.42 1.282 6.706 1.662 3.568 0.6 7.124 1.308 10.682 1.978zm97.588 -9.144c0 3.5 -0.04 6.998 0.014 10.496 0.044 2.648 0.288 5.28 0.81 7.884 0.19 0.944 0.59 1.726 1.036 2.528 0.238 0.416 0.476 0.838 0.61 1.288 0.212 0.726 -0.33 1.296 -1.076 1.196a46.364 46.364 0 0 1 -2.174 -0.344c-0.592 -0.114 -1 -0.486 -1.318 -0.98 -0.104 -0.16 -0.168 -0.372 -0.316 -0.456 -0.612 -0.36 -0.66 -0.908 -0.584 -1.514 0.346 -2.738 -0.126 -5.456 -0.366 -8.166 -0.38 -4.3 -0.872 -8.588 -1.322 -12.88q-0.254 -2.494 -0.556 -4.986c-0.056 -0.458 -0.204 -0.9 -0.332 -1.344 -0.506 -1.768 -1.906 -2.438 -3.532 -2.754 -0.662 -0.126 -1.268 0.142 -1.774 0.62 -1.718 1.606 -3.146 3.43 -4.384 5.442 -1.9 3.084 -3.942 6.068 -5.94 9.088 -0.284 0.43 -0.62 0.816 -0.93 1.224 -0.394 0.5 -0.886 0.93 -0.986 1.628 -0.04 0.28 -0.288 0.534 -0.472 0.78q-1.12 1.468 -2.252 2.92a4 4 0 0 1 -0.52 0.564c-1.006 0.916 -2.04 0.866 -2.97 -0.126 -0.21 -0.224 -0.394 -0.472 -0.59 -0.71 -0.648 -0.784 -0.28 -2.028 0.724 -2.084 1.204 -0.07 1.788 -0.88 2.316 -1.676a411.818 411.818 0 0 0 6.398 -9.954c2.454 -3.95 4.784 -7.968 7.29 -11.882 1.66 -2.598 3.526 -5.07 5.328 -7.582 0.394 -0.55 0.872 -1.05 1.366 -1.52 0.366 -0.352 0.78 -0.678 1.23 -0.91 1.64 -0.872 3.19 -0.232 3.702 1.55 0.22 0.766 0.332 1.576 0.388 2.372 0.388 5.004 0.782 10.004 1.098 15.016 0.106 1.752 0.014 3.512 0.014 5.272zm-44.278 0.628c0 0.48 0.022 0.958 -0.006 1.436 -0.028 0.528 0.26 0.83 0.682 1.036 0.346 0.16 0.66 0.16 0.88 -0.226 0.528 -0.93 1.132 -1.824 1.59 -2.788 1.05 -2.226 2.104 -4.45 3 -6.73 0.612 -1.556 1.294 -3.04 2.266 -4.4 1.224 -1.702 2.794 -2.992 4.728 -3.794 0.676 -0.282 1.374 -0.12 1.95 0.274 0.45 0.318 0.676 0.908 0.472 1.416 -0.276 0.682 -0.62 1.414 -1.14 1.9 -0.81 0.76 -1.732 1.422 -2.858 1.752 -0.352 0.106 -0.654 0.52 -0.9 0.86a22.636 22.636 0 0 0 -3.02 5.674 701.818 701.818 0 0 1 -3.498 9.412 32.727 32.727 0 0 1 -1.26 2.858q-0.432 0.902 -1.014 1.718c-0.956 1.33 -2.434 1.24 -3.2 -0.212a9.364 9.364 0 0 1 -0.802 -2.148c-0.614 -2.504 -1.156 -5.026 -1.732 -7.538 -0.136 -0.606 -0.572 -1.008 -1.084 -1.296 -0.38 -0.21 -0.584 -0.04 -0.76 0.45 -0.634 1.78 -1.252 3.576 -1.944 5.338a10 10 0 0 1 -1.09 2.02c-0.852 1.252 -2.288 1.204 -3.088 -0.092 -0.284 -0.46 -0.48 -0.98 -0.7 -1.48 -0.85 -1.956 -1.73 -3.9 -2.524 -5.878 -0.366 -0.928 -0.6 -1.92 -0.816 -2.9 -0.192 -0.808 0.152 -1.464 0.766 -1.708 0.626 -0.256 1.288 -0.008 1.752 0.69 0.938 1.386 1.562 2.914 2 4.524 0.082 0.31 0.028 0.712 0.534 0.74 0.5 0.02 1 -0.226 1.168 -0.654 0.514 -1.34 1.028 -2.676 1.512 -4.026 0.486 -1.33 0.888 -2.69 1.416 -4.008 0.28 -0.704 0.668 -1.4 1.146 -1.978 0.9 -1.068 2.246 -1.048 3.154 0.02 0.368 0.43 0.704 0.946 0.894 1.474 0.95 2.674 1.556 5.414 1.526 8.264m133.054 0.204a1.818 1.818 0 0 0 0.224 -0.112c2.576 -1.67 4.926 -3.62 7.208 -5.66a2.909 2.909 0 0 0 0.568 -0.648c0.318 -0.514 0.206 -0.916 -0.322 -1.19a3 3 0 0 0 -0.9 -0.344c-1.636 -0.254 -3.274 -0.52 -4.922 -0.682 -0.856 -0.086 -1.752 0.02 -2.44 0.682 -0.114 0.112 -0.254 0.274 -0.254 0.414 0.014 1.274 0 2.54 0.274 3.8 0.268 1.212 0.38 2.46 0.564 3.74m0.52 3.492c0.752 0.198 1.498 0.428 2.266 0.59 2.434 0.516 4.786 1.262 7.016 2.374 0.668 0.338 1.422 0.492 2.126 0.754 0.64 0.24 0.718 0.45 0.506 1.35 -0.112 0.486 -0.52 0.5 -0.9 0.452 -1.83 -0.226 -3.652 -0.444 -5.446 -0.93 -1.726 -0.466 -3.52 -0.66 -5.28 -0.972 -0.148 -0.02 -0.31 0 -0.506 0 -0.044 0.46 -0.064 0.916 -0.14 1.36a4.545 4.545 0 0 1 -0.304 1.076 0.982 0.982 0 0 1 -1.076 0.62 0.96 0.96 0 0 1 -0.872 -0.818q-0.186 -0.964 -0.226 -1.928c-0.022 -0.45 -0.162 -0.676 -0.634 -0.74a5.182 5.182 0 0 1 -1.288 -0.33c-1.076 -0.436 -1.47 -1.506 -0.81 -2.464 0.402 -0.584 0.994 -1.056 1.548 -1.52 0.262 -0.22 0.394 -0.396 0.36 -0.754 -0.168 -1.612 -0.254 -3.232 -0.458 -4.836 -0.162 -1.254 -0.294 -2.5 -0.28 -3.76 0.006 -0.576 0.148 -1.068 0.57 -1.42 0.774 -0.628 1.52 -1.416 2.42 -1.76 2.978 -1.156 6.052 -1.952 9.298 -1.62 0.774 0.08 1.54 0.296 2.3 0.5 2.034 0.556 2.766 2.252 2.408 4.24 -0.17 0.92 -0.648 1.672 -1.282 2.348 -1.352 1.43 -3.046 2.36 -4.708 3.33 -2.204 1.29 -4.398 2.57 -6.242 4.372 -0.126 0.128 -0.318 0.198 -0.48 0.296q0.064 0.096 0.114 0.19M205 19.803c0 -1.35 0.042 -2.478 -0.014 -3.604a11.182 11.182 0 0 0 -0.36 -2.308c-0.378 -1.408 0.246 -2.224 1.696 -2.09 0.274 0.028 0.55 0.062 0.81 0.12 0.86 0.196 1.35 0.766 1.324 1.64 -0.028 0.746 -0.176 1.492 -0.246 2.24 -0.03 0.316 -0.086 0.666 0.006 0.962 0.598 2.006 0.528 4.056 0.31 6.098a190 190 0 0 1 -1.028 7.66 3.418 3.418 0 0 1 -0.62 1.476c-0.456 0.606 -1.168 0.682 -1.872 0.48 -1.604 -0.466 -3.154 -1.042 -4.37 -2.254 -0.958 -0.95 -1.94 -1.88 -2.836 -2.88 -0.43 -0.48 -0.888 -0.33 -1.3 -0.224 -0.192 0.048 -0.39 0.52 -0.374 0.794 0.092 1.324 0.244 2.648 0.38 3.972 0.026 0.266 0.09 0.54 0.096 0.81 0.008 1.012 0.226 1.914 0.98 2.68 0.338 0.346 0.506 0.888 0.654 1.374 0.056 0.196 -0.076 0.556 -0.246 0.696a2.545 2.545 0 0 1 -1.008 0.48c-1.288 0.324 -2.51 -0.29 -2.876 -1.556a90 90 0 0 1 -1.366 -5.568c-0.584 -2.72 -0.52 -5.464 -0.064 -8.194 0.162 -0.972 0.486 -1.888 1.106 -2.668 1.006 -1.268 2.42 -1.416 3.61 -0.318 0.458 0.43 0.824 0.95 1.21 1.452 0.6 0.786 1.154 1.61 1.78 2.37a5.091 5.091 0 0 0 2.578 1.696c1.126 0.326 1.82 -0.154 1.886 -1.314 0.076 -1.416 0.104 -2.83 0.154 -4.02"/><path d="M75.622 26.78c-1.14 1.336 -2.14 2.548 -3.18 3.722 -0.754 0.84 -1.53 1.662 -2.366 2.408 -2.94 2.62 -7.032 0.698 -7.8 -2.252 -0.758 -2.914 -1.54 -5.824 -1.328 -8.87 0.05 -0.78 0.26 -1.472 1 -1.91 0.696 -0.406 1.414 -0.294 1.894 0.36 0.104 0.156 0.236 0.324 0.26 0.5 0.132 1.226 0.484 2.438 0.224 3.69a2 2 0 0 0 -0.008 0.746c0.184 0.886 0.388 1.766 0.586 2.648 0.14 0.604 0.456 1.048 1.076 1.26 0.768 0.26 1.414 0.232 2.21 -0.192 1.66 -0.888 2.652 -2.316 3.63 -3.8a70 70 0 0 0 1.514 -2.38 4.364 4.364 0 0 0 0.38 -0.994c0.424 -1.406 0.754 -2.82 0.754 -4.32 -0.008 -1.086 0.936 -1.684 1.928 -1.248 0.774 0.332 1.52 0.754 2.224 1.226 0.916 0.612 1.168 1.562 1.064 2.612 -0.128 1.218 -0.346 2.436 -0.452 3.66 -0.246 2.934 -0.076 5.87 0.254 8.792a8 8 0 0 1 -0.26 3.134c-0.17 0.59 -0.45 0.668 -1.056 0.52 -1.31 -0.33 -1.824 -1.274 -2.104 -2.45a14 14 0 0 1 -0.388 -4.218c0.056 -0.842 -0.036 -1.688 -0.056 -2.644m137.11 -9.766c0.534 4.968 0.394 9.85 1.28 14.72 0.192 -0.106 0.346 -0.19 0.502 -0.282 1.378 -0.818 2.448 -1.97 3.3 -3.302 0.754 -1.168 1.604 -2.316 1.906 -3.716 0.578 -2.67 0.066 -4.14 -2.244 -5.442 -1.442 -0.81 -3.068 -1.294 -4.744 -1.978m11.288 5.504c0.072 1.958 -0.598 3.746 -1.724 5.4 -1.998 2.936 -4.686 5.118 -7.608 7.06 -0.4 0.26 -0.9 0.416 -1.378 0.508 -1.536 0.288 -2.478 -0.302 -2.864 -1.824a21.818 21.818 0 0 1 -0.5 -2.716 16 16 0 0 1 -0.212 -2.444c-0.006 -0.964 0.092 -1.936 0.162 -2.9 0.062 -0.9 0.148 -1.796 0.206 -2.696q0.228 -3.528 0.436 -7.046a1 1 0 0 0 -0.052 -0.452c-0.274 -0.816 -0.056 -1.4 0.762 -1.654 1.556 -0.492 3.144 -0.864 4.778 -0.42 2.09 0.554 4.026 1.4 5.588 2.96 1.704 1.712 2.484 3.76 2.406 6.224m-31.58 12.978c0.04 0.252 0.076 0.592 0.146 0.92 0.14 0.67 -0.05 1.19 -0.66 1.508a9.091 9.091 0 0 1 -1.514 0.612c-0.9 0.274 -1.592 -0.07 -1.824 -0.986a17 17 0 0 1 -0.492 -2.864 4.727 4.727 0 0 0 -0.542 -1.838c-0.908 -1.682 -1.858 -3.344 -2.71 -5.054 -0.88 -1.78 -3.02 -1.802 -4.116 -0.788 -1.156 1.06 -2.112 2.288 -2.676 3.766 -0.47 1.246 -0.864 2.52 -1.3 3.772 -0.114 0.326 -0.24 0.65 -0.424 0.93a1.66 1.66 0 0 1 -1.886 0.684 1.609 1.609 0 0 1 -1.16 -1.578c0.014 -0.436 0.11 -0.886 0.28 -1.288 0.6 -1.408 1.254 -2.802 1.88 -4.202 1.328 -2.984 2.632 -5.99 3.998 -8.956 0.38 -0.808 0.93 -1.554 1.476 -2.266 0.31 -0.408 0.754 -0.754 1.198 -1.02 1.45 -0.868 2.752 -0.514 3.498 1.006 0.54 1.106 1.082 2.232 1.392 3.408 0.572 2.174 1.408 4.224 2.296 6.278 0.59 1.366 0.928 2.852 1.428 4.26 0.226 0.64 0.57 1.24 0.872 1.844 0.056 0.12 0.134 0.268 0.24 0.324 0.592 0.324 0.724 0.83 0.6 1.528m64.294 -7.248c-0.09 2.9 -1.732 5.35 -4.498 7.04 -1.836 1.126 -3.898 1.676 -6.088 1.336 -3.482 -0.528 -6.634 -4.532 -5.094 -8.764 0.55 -1.52 1.4 -2.914 2.788 -3.844 0.52 -0.35 1.146 -0.576 1.76 -0.758 0.274 -0.084 0.654 0.006 0.934 0.14 0.676 0.316 0.74 1.126 0.156 1.59 -0.162 0.128 -0.352 0.22 -0.522 0.332 -1.464 0.964 -2.328 2.36 -2.864 3.992a1.436 1.436 0 0 0 0.232 1.36c0.458 0.646 0.794 1.406 1.662 1.652 0.258 0.072 0.534 0.204 0.786 0.168 1.536 -0.224 2.908 -0.752 3.746 -2.18 0.81 -1.396 1.294 -2.852 0.992 -4.5 -0.176 -0.92 -0.528 -1.68 -1.414 -2.118 -0.654 -0.324 -1.29 -0.682 -1.944 -0.992 -0.696 -0.332 -0.844 -1.128 -0.232 -1.748 0.732 -0.724 1.654 -1.14 2.668 -1.132 0.684 0 1.4 0.154 2.034 0.416 2.956 1.21 4.956 4.35 4.898 8.01M173.08 14.964c-0.13 0.326 -0.2 0.706 -0.404 0.98 -0.654 0.88 -0.76 1.914 -0.716 2.92 0.12 2.914 -0.008 5.816 -0.536 8.672 -0.64 3.456 -1.28 6.92 -2.428 10.26a14 14 0 0 1 -0.788 1.83c-0.592 1.204 -1.55 2.012 -2.8 2.498a5.455 5.455 0 0 0 -1.234 0.696 4.2 4.2 0 0 1 -2.476 0.846 2.6 2.6 0 0 1 -1.508 -0.52c-0.78 -0.606 -0.344 -2.184 0.728 -2.408 1.448 -0.304 2.44 -1.274 3.49 -2.14 0.486 -0.4 0.836 -1.05 1.076 -1.656 0.64 -1.668 1.196 -3.372 1.78 -5.068 0.056 -0.154 0.078 -0.332 0.14 -0.486 0.868 -2.07 0.994 -4.23 0.9 -6.44 -0.102 -2.388 -0.14 -4.774 -0.23 -7.16a1.336 1.336 0 0 0 -0.268 -0.69c-0.38 -0.528 -0.8 -1.014 -1.21 -1.52 -0.472 -0.6 -0.232 -1.422 0.492 -1.6 1.444 -0.35 2.894 -0.66 4.4 -0.534 0.978 0.078 1.568 0.64 1.59 1.52"/><path d="M156.676 24.574c1.062 -0.114 2.056 -0.154 2.97 -0.69 0.754 -0.436 1.54 -0.19 2.21 0.288 0.506 0.36 0.66 1.03 0.458 1.562 -0.212 0.536 -0.802 0.966 -1.408 0.768 -1.542 -0.506 -2.824 0.366 -4.208 0.656 -0.156 0.028 -0.318 0.288 -0.366 0.464 -0.114 0.394 -0.148 0.804 -0.226 1.204 -0.19 0.96 0.98 2.322 1.942 2.218 0.908 -0.092 1.774 -0.268 2.556 -0.816 0.336 -0.24 0.822 -0.284 1.236 -0.416 0.156 -0.056 0.326 -0.086 0.452 -0.176 0.54 -0.38 1.07 -0.17 1.16 0.47 0.044 0.354 -0.112 0.712 0.114 1.08 0.056 0.084 -0.28 0.526 -0.514 0.646a44.545 44.545 0 0 1 -3.168 1.458 16 16 0 0 1 -2.618 0.88c-2.26 0.52 -3.92 -0.7 -4.066 -3.014 -0.072 -1.204 0.006 -2.416 0.082 -3.624 0.148 -2.296 0.34 -4.59 0.52 -6.886 0.038 -0.422 0.122 -0.852 0.24 -1.252 0.206 -0.656 0.614 -0.93 1.296 -0.966 0.148 -0.006 0.304 -0.036 0.452 -0.062 1.18 -0.232 2.364 -0.586 3.56 -0.668 1.788 -0.128 3.582 -0.08 5.378 -0.08 0.274 0 0.704 0.044 0.8 0.22 0.248 0.42 0.466 0.92 0.544 1.366 0.132 0.732 -0.782 1.858 -1.52 2.054 -0.29 0.078 -0.67 0.008 -0.958 -0.112 -0.788 -0.316 -1.54 -0.712 -2.314 -1.048 -0.156 -0.066 -0.374 -0.036 -0.55 -0.008 -0.578 0.086 -1.148 0.212 -1.724 0.274a1.4 1.4 0 0 0 -0.994 0.55c-0.78 0.992 -1.196 2.132 -1.364 3.372 -0.006 0.078 0.014 0.162 0.028 0.288m-10.596 7.834c0.804 -0.288 1.57 -0.556 2.324 -0.866 0.154 -0.064 0.246 -0.274 0.372 -0.408 0.444 -0.438 0.874 -0.908 1.352 -1.31 0.486 -0.394 1.266 -0.156 1.472 0.48 0.166 0.54 0.33 1.14 0.274 1.696 -0.05 0.442 -0.344 0.922 -0.67 1.26 -0.464 0.464 -1.034 0.83 -1.582 1.202 -1.02 0.69 -2.028 1.402 -3.098 2.008a5.182 5.182 0 0 1 -1.964 0.654c-1.196 0.126 -2.2 -0.626 -2.554 -1.788a5 5 0 0 1 -0.204 -1.408c0.044 -3.74 0.05 -7.476 0.19 -11.206 0.07 -1.824 0.38 -3.634 0.606 -5.442 0.04 -0.33 0.16 -0.67 0.308 -0.964 0.402 -0.796 1.056 -1.05 1.922 -0.84 0.324 0.086 0.67 0.12 1.008 0.12 0.808 0.01 1.252 0.494 1.09 1.284a3 3 0 0 1 -0.402 0.934 3.545 3.545 0 0 0 -0.562 1.768c-0.134 2.196 -0.394 4.384 -0.494 6.58 -0.056 1.318 0.078 2.656 0.2 3.972 0.06 0.746 0.258 1.47 0.412 2.274m21.274 -22.312c-0.008 -0.874 0.204 -1.6 1.098 -1.964a1.273 1.273 0 0 0 0.43 -0.352c0.746 -0.894 1.752 -1.34 2.836 -1.634 0.62 -0.168 1.126 0.02 1.408 0.458 0.288 0.458 0.21 1.02 -0.212 1.506 -0.154 0.184 -0.338 0.346 -0.506 0.506 -0.394 0.368 -0.704 0.74 -0.72 1.348a1.482 1.482 0 0 1 -0.856 1.308 11.818 11.818 0 0 1 -2.112 0.754c-0.508 0.132 -1 -0.226 -1.17 -0.78 -0.112 -0.368 -0.134 -0.77 -0.196 -1.15"/></svg>